<svg width="62" height="30" viewBox="0 0 62 30" fill="none" xmlns="http://www.w3.org/2000/svg">
<path fill-rule="evenodd" clip-rule="evenodd" d="M56.9686 21.3846C57.1128 21.9589 57.1956 21.8013 57.4814 22.2179C58.0103 22.5892 58.3175 23.1395 58.7796 23.4039C59.3618 22.7094 60.1952 20.7408 59.5408 19.8941C58.9505 19.651 58.5926 20.0731 58.1278 20.4283C57.7245 20.7435 57.3505 20.9919 56.9686 21.3846Z" fill="#D6D6D6"/>
<path fill-rule="evenodd" clip-rule="evenodd" d="M13.4729 23.9167C12.4926 24.7074 10.3932 24.6246 8.9668 24.5712C8.26965 24.7127 7.26533 25.3698 6.61893 25.7998C6.25834 26.0402 5.93514 26.2833 5.59591 26.5184C5.20594 26.7908 4.87205 26.9164 4.72247 27.3384C6.92076 30.1056 12.5273 30.4528 16.4191 29.1601C17.5703 28.7754 20.3562 27.3304 21.2003 27.2529C21.5582 26.7374 22.0657 26.7107 22.7282 26.3955C23.3799 26.0856 23.85 25.7251 24.5872 25.6075C26.4035 24.4376 32.1704 23.866 34.1951 24.4723C35.1513 24.5631 37.3229 25.5808 38.0574 25.9761C38.5329 26.1498 40.213 26.9431 40.5949 27.2582C42.0079 27.8192 43.1618 28.6793 44.8072 29.1467C48.9928 31.0004 53.9075 29.2909 56.1325 26.7561C55.796 26.1711 52.9566 24.4803 51.939 24.3121C50.3684 24.6887 49.2652 24.7314 47.8041 24.1785L47.3661 24.0583C46.2603 23.1288 43.1164 21.5315 41.6073 20.5592C40.1035 19.9475 39.2514 19.1302 36.7299 18.3075C34.7773 17.6718 33.0118 17.3646 30.7227 17.4634C24.7208 17.7199 20.6501 20.415 19.9048 20.5111C19.814 20.6206 19.8487 20.6019 19.6885 20.7355L16.55 22.3408C16.3336 22.7281 14.8512 23.1448 14.6482 23.5829C14.0018 23.7191 14.1353 23.8233 13.4729 23.9167Z" fill="#D6D6D6"/>
<path fill-rule="evenodd" clip-rule="evenodd" d="M1.03104 21.5635C1.31151 22.2527 1.88846 23.5855 2.35857 23.9996C2.59362 23.842 2.4013 23.9702 2.80998 23.8286C2.78861 23.4279 3.80896 22.3435 4.41796 22.0657L4.40193 21.7158C4.14017 21.3926 2.92483 20.4791 2.57759 20.3696L1.89647 19.8167C1.50115 19.6163 1.42636 19.595 0.948242 19.6804" fill="#D6D6D6"/>
<path d="M30.4288 13.3126C34.105 13.3126 37.0851 10.3325 37.0851 6.65631C37.0851 2.98013 34.105 0 30.4288 0C26.7527 0 23.7725 2.98013 23.7725 6.65631C23.7725 10.3325 26.7527 13.3126 30.4288 13.3126Z" fill="#D6D6D6"/>
<path fill-rule="evenodd" clip-rule="evenodd" d="M31.337 25.3938C31.7109 25.9094 34.2324 25.5274 35.1005 26.505C35.1299 27.7604 33.5059 28.0756 32.4535 28.4576L30.8882 28.9464C33.4712 29.4272 36.9729 28.8609 38.9949 27.8966L40.5976 27.2582C40.2156 26.9431 38.5355 26.1498 38.0601 25.9761C37.3255 25.5808 35.1539 24.5631 34.1977 24.4723L31.337 25.3938Z" fill="white"/>
<path fill-rule="evenodd" clip-rule="evenodd" d="M60.9832 29.745C64.4582 29.7984 58.3548 20.7916 52.7937 19.0527C47.6465 17.2498 45.8623 19.2157 41.6072 20.5539C43.1164 21.5288 46.2629 23.1234 47.3661 24.053L47.8041 24.1732C48.5039 23.7485 50.0719 23.7992 50.9533 23.9648L51.9389 24.3067C52.9566 24.475 55.796 26.1658 56.1325 26.7508C56.6988 26.9591 56.8831 27.2556 57.4253 27.5414C57.7191 27.9421 60.2112 29.7343 60.9832 29.745Z" fill="white"/>
<path d="M48.7336 16.1172C51.4141 16.1172 53.587 13.9443 53.587 11.2639C53.587 8.58347 51.4141 6.41055 48.7336 6.41055C46.0532 6.41055 43.8803 8.58347 43.8803 11.2639C43.8803 13.9443 46.0532 16.1172 48.7336 16.1172Z" fill="white"/>
<path d="M10.914 16.1172C13.5944 16.1172 15.7673 13.9443 15.7673 11.2639C15.7673 8.58347 13.5944 6.41055 10.914 6.41055C8.23358 6.41055 6.06067 8.58347 6.06067 11.2639C6.06067 13.9443 8.23358 16.1172 10.914 16.1172Z" fill="#FF9900"/>
<path fill-rule="evenodd" clip-rule="evenodd" d="M32.4535 28.4576C33.5085 28.0756 35.1299 27.7604 35.1005 26.505C34.6811 25.45 28.6365 24.9131 27.4666 24.6513C26.4008 24.6914 21.243 26.4062 20.7595 27.106C24.6459 28.5003 26.6172 29.0746 30.8855 28.9464L32.4535 28.4576Z" fill="#FF9900"/>
<path fill-rule="evenodd" clip-rule="evenodd" d="M0 29.3337C0.416687 30.5624 3.50979 28.1103 3.84634 27.8406L4.45534 27.3464L4.72245 27.3384C4.8747 26.9137 5.20591 26.7908 5.59589 26.5184C5.93512 26.2833 6.25832 26.0403 6.61891 25.7999C7.26531 25.3725 8.26696 24.7154 8.96678 24.5712C9.88296 23.7672 12.5674 23.7618 14.0204 23.9568C14.8939 23.8313 18.4838 21.3472 19.6885 20.7302C19.8487 20.5966 19.814 20.6153 19.9048 20.5058C13.3019 15.559 7.47098 19.2183 4.40192 21.7105C3.9051 22.0604 2.82065 23.5054 2.35855 23.9942C2.18226 24.5899 1.19664 25.8746 0.793308 26.6813" fill="#FF9900"/>
<path fill-rule="evenodd" clip-rule="evenodd" d="M11.1651 3.06372C3.40294 3.06372 2.97824 8.2269 4.08674 13.6972L16.5019 13.5931L17.6344 13.5824C17.6771 13.0882 17.792 12.4445 17.8962 11.7233C18.3743 8.42723 18.6628 3.44568 11.1651 3.06372Z" fill="#FF9900"/>
</svg>
